<svg xmlns="http://www.w3.org/2000/svg" width="58" height="60.002" viewBox="0 0 58 60.002"><g transform="translate(0 -0.999)"><path d="M4.637,15.634A9.934,9.934,0,0,0,7.566,22.7L25.3,40.443a7.758,7.758,0,0,0,5.57,2.205,10.769,10.769,0,0,0,7.511-3.265c3.9-3.9,4.375-9.768,1.061-13.082L35.205,22.06H35.2l-8.187-8.187-5.3-5.3A9.891,9.891,0,0,0,14.672,5.64H14.64a10.021,10.021,0,0,0-2.2.244l-.84-2.53A3.442,3.442,0,0,0,6.575,1.483a3.319,3.319,0,0,0-.671.525,3.455,3.455,0,0,0-.945,1.763l-.176.878a1.45,1.45,0,0,1-1.125,1.13l-.885.177a3.491,3.491,0,0,0-2.279,1.6,3.435,3.435,0,0,0,1.863,5.036l2.53.84a10.1,10.1,0,0,0-.25,2.2ZM36.971,37.969c-3.118,3.118-7.719,3.594-10.253,1.06S24.66,31.9,27.779,28.776a8.79,8.79,0,0,1,6.094-2.69,5.782,5.782,0,0,1,4.159,1.629C40.566,30.25,40.09,34.85,36.971,37.969ZM30.2,19.878a9.234,9.234,0,0,0-1.4.011,10.744,10.744,0,0,0-5.934,2.555L16.1,15.662c3.107-2.526,7.188-2.689,9.5-.386ZM14.666,7.64a7.9,7.9,0,0,1,5.627,2.337l1.7,1.7a10.439,10.439,0,0,0-7.16,2.433,2.011,2.011,0,0,0-.157,2.979l6.77,6.769a2.009,2.009,0,0,0,1.421.587,1.946,1.946,0,0,0,1.262-.459,8.783,8.783,0,0,1,4.842-2.1,5.892,5.892,0,0,1,4.813,1.588l.656.656A11.062,11.062,0,0,0,23.128,35.439L8.98,21.291a7.992,7.992,0,0,1,3.1-13.232h.033c.011,0,.023-.016.037-.021a7.953,7.953,0,0,1,2.467-.394.243.243,0,0,1,.049,0ZM2.978,10.694a1.39,1.39,0,0,1-.553-.342A1.434,1.434,0,0,1,2.2,8.6a1.484,1.484,0,0,1,.963-.682l.89-.178a3.453,3.453,0,0,0,2.69-2.693l.176-.88a1.472,1.472,0,0,1,.4-.745,1.338,1.338,0,0,1,.273-.216,1.441,1.441,0,0,1,2.109.78l.842,2.528A9.944,9.944,0,0,0,5.52,11.537Z" fill="#b20000"/><path d="M27.072,35.14a1,1,0,1,0,1.414,0,1,1,0,0,0-1.414,0Z" fill="#b20000"/><path d="M34.85,35.847a1,1,0,1,0,1.414,0A1,1,0,0,0,34.85,35.847Z" fill="#b20000"/><path d="M30.607,37.261a1,1,0,1,0,1.414,0,1,1,0,0,0-1.414,0Z" fill="#b20000"/><path d="M30.607,30.19a1,1,0,1,0,.293.708A1,1,0,0,0,30.607,30.19Z" fill="#b20000"/><circle cx="1" cy="1" r="1" transform="translate(33.85 27.776)" fill="#b20000"/><path d="M36.264,31.6a1,1,0,1,0,1.414,0,1,1,0,0,0-1.414,0Z" fill="#b20000"/><path d="M32.021,33.019a1,1,0,1,0,.707-.293,1,1,0,0,0-.707.293Z" fill="#b20000"/><circle cx="1" cy="1" r="1" transform="translate(8 44)" fill="#b20000"/><circle cx="1" cy="1" r="1" transform="translate(9 48)" fill="#b20000"/><circle cx="1" cy="1" r="1" transform="translate(13 42)" fill="#b20000"/><circle cx="1" cy="1" r="1" transform="translate(15 49)" fill="#b20000"/><circle cx="1" cy="1" r="1" transform="translate(20 55)" fill="#b20000"/><circle cx="1" cy="1" r="1" transform="translate(16 53)" fill="#b20000"/><circle cx="1" cy="1" r="1" transform="translate(20 47)" fill="#b20000"/><circle cx="1" cy="1" r="1" transform="translate(24 53)" fill="#b20000"/><circle cx="1" cy="1" r="1" transform="translate(20 51)" fill="#b20000"/><circle cx="1" cy="1" r="1" transform="translate(30 50)" fill="#b20000"/><circle cx="1" cy="1" r="1" transform="translate(35 56)" fill="#b20000"/><circle cx="1" cy="1" r="1" transform="translate(31 54)" fill="#b20000"/><circle cx="1" cy="1" r="1" transform="translate(35 48)" fill="#b20000"/><circle cx="1" cy="1" r="1" transform="translate(35 52)" fill="#b20000"/><path d="M48,41a10.587,10.587,0,0,0-8.2,3.652A11.456,11.456,0,0,0,36,44a10.877,10.877,0,0,0-6.992,2.429,10.229,10.229,0,0,0-5.783-3.194C21.689,40.083,18.062,38,14,38,8.486,38,4,41.813,4,46.5c0,4.005,3.24,7.4,7.777,8.27C13.315,57.919,16.94,60,21,60a10.884,10.884,0,0,0,6.986-2.425A10.655,10.655,0,0,0,36,61a10.611,10.611,0,0,0,8.186-3.646A11.464,11.464,0,0,0,48,58c5.514,0,10-3.813,10-8.5S53.514,41,48,41ZM6,46.5C6,42.916,9.589,40,14,40a8.509,8.509,0,0,1,6.717,3.012,10.332,10.332,0,0,0-1.375.115,9.208,9.208,0,0,0-1.364.275,10.3,10.3,0,0,0-4,2.055A9.131,9.131,0,0,0,12.446,47.1,7.549,7.549,0,0,0,11,51.5a7.175,7.175,0,0,0,.083,1.04C8.064,51.588,6,49.221,6,46.5Zm7.4,7a5.2,5.2,0,0,1-.4-2,5.562,5.562,0,0,1,1.072-3.237,7.061,7.061,0,0,1,1.192-1.277A8.282,8.282,0,0,1,18.5,45.334a7.542,7.542,0,0,1,1.122-.227,8.816,8.816,0,0,1,2.775,0,8.267,8.267,0,0,1,5.223,2.759,7.947,7.947,0,0,0-.886,1.456A.99.99,0,0,0,26,49a1,1,0,0,0,0,2,.944.944,0,0,0,.168-.034,7.166,7.166,0,0,0,.689,4.941A8.964,8.964,0,0,1,21,58c-3.47,0-6.525-1.8-7.6-4.5ZM36,59a8.369,8.369,0,0,1-7.059-3.467A5.44,5.44,0,0,1,28,52.5a5.63,5.63,0,0,1,1.624-3.91A8.765,8.765,0,0,1,36,46a9.533,9.533,0,0,1,2.7.393A7.337,7.337,0,0,0,38,49.5a7.557,7.557,0,0,0,1.6,4.589,1,1,0,1,0,1.282,1.367A9.848,9.848,0,0,0,42.3,56.477,8.747,8.747,0,0,1,36,59Zm12-3c-4.411,0-8-2.916-8-6.5S43.589,43,48,43s8,2.916,8,6.5S52.411,56,48,56Z" fill="#b20000"/><circle cx="1" cy="1" r="1" transform="translate(42 47)" fill="#b20000"/><circle cx="1" cy="1" r="1" transform="translate(47 53)" fill="#b20000"/><circle cx="1" cy="1" r="1" transform="translate(43 51)" fill="#b20000"/><circle cx="1" cy="1" r="1" transform="translate(47 45)" fill="#b20000"/><circle cx="1" cy="1" r="1" transform="translate(52 47)" fill="#b20000"/><circle cx="1" cy="1" r="1" transform="translate(51 51)" fill="#b20000"/><circle cx="1" cy="1" r="1" transform="translate(47 49)" fill="#b20000"/></g></svg>