<svg xmlns="http://www.w3.org/2000/svg" width="15.332" height="18.951" viewBox="0 0 15.332 18.951"><g transform="translate(-48.886)"><g transform="translate(48.886)"><g transform="translate(0)"><path d="M62.842,3.295a7.652,7.652,0,0,0-12.58,0,7.653,7.653,0,0,0-.891,7.051,6.027,6.027,0,0,0,1.111,1.834l5.566,6.538a.662.662,0,0,0,1.009,0l5.564-6.536a6.033,6.033,0,0,0,1.111-1.831A7.654,7.654,0,0,0,62.842,3.295Zm-.352,6.591a4.727,4.727,0,0,1-.874,1.432l0,0-5.061,5.945-5.065-5.949a4.729,4.729,0,0,1-.876-1.436,6.33,6.33,0,0,1,.74-5.833,6.326,6.326,0,0,1,10.4,0A6.331,6.331,0,0,1,62.491,9.886Z" transform="translate(-48.886)" fill="#b20000"/></g></g><g transform="translate(52.841 3.931)"><g transform="translate(0)"><path d="M159.465,106.219a3.711,3.711,0,1,0,3.711,3.711A3.715,3.715,0,0,0,159.465,106.219Zm0,6.1a2.385,2.385,0,1,1,2.385-2.385A2.388,2.388,0,0,1,159.465,112.315Z" transform="translate(-155.754 -106.219)" fill="#b20000"/></g></g></g></svg>