<svg xmlns="http://www.w3.org/2000/svg" width="102" height="100.606" viewBox="0 0 102 100.606"><g transform="translate(-376 -1036.394)"><rect width="72" height="72" rx="36" transform="translate(376 1065)" fill="#efe50c"/><g transform="translate(370.013 1036.394)"><path d="M48.135,15.3a7.47,7.47,0,0,0-2.323-.344l.2-2.6a1.848,1.848,0,0,0-2.651-1.8l-4.82,2.34a1.846,1.846,0,0,0-.221,3.2L40.3,17.411a7.394,7.394,0,0,0-1.419,8.238,49.946,49.946,0,0,1,0,41.656A7.394,7.394,0,0,0,40.3,75.544l-1.983,1.323a1.847,1.847,0,0,0,.22,3.2l4.823,2.341a1.848,1.848,0,0,0,2.649-1.8L45.811,78a7.4,7.4,0,0,0,2.323-.342,7.469,7.469,0,0,0,4.548-4.017,65.431,65.431,0,0,0,0-54.322A7.468,7.468,0,0,0,48.135,15.3Zm-4.614-2.138L43.352,15.4a7.461,7.461,0,0,0-1.023.458l-1.836-1.227ZM40.491,78.324,42.331,77.1a7.458,7.458,0,0,0,1.021.459l.169,2.24Zm9.99-5.689a5.175,5.175,0,0,1-9.4-4.328A52.737,52.737,0,0,0,45.38,53.2l3.535-1.715a1.21,1.21,0,0,0-1.056-2.177l-2.192,1.064q.115-1.553.139-3.11l3.11-1.509a1.21,1.21,0,0,0-1.056-2.177l-2.082,1.01q-.053-1.477-.188-2.952l3.327-1.614a1.21,1.21,0,0,0-1.056-2.177L45.29,39.088a52.742,52.742,0,0,0-4.208-14.44,5.174,5.174,0,0,1,9.4-4.328,63.016,63.016,0,0,1,0,52.314ZM83.28,4.062a1.853,1.853,0,0,0-1.037-1.536L77.42.184a1.848,1.848,0,0,0-2.649,1.8l.2,2.6A7.464,7.464,0,0,0,68.1,8.951a65.208,65.208,0,0,0-4.926,38.41,1.21,1.21,0,1,0,2.384-.416A62.8,62.8,0,0,1,70.3,9.955a5.052,5.052,0,0,1,7.161-2.246A5.066,5.066,0,0,1,79.7,14.283a52.74,52.74,0,0,0-4.208,14.44l-2.568-1.246a1.21,1.21,0,0,0-1.056,2.177l3.327,1.614Q75.056,32.742,75,34.22l-2.082-1.01a1.21,1.21,0,0,0-1.056,2.177l3.11,1.509q.023,1.557.139,3.11l-2.192-1.064a1.21,1.21,0,0,0-1.056,2.177L75.4,42.834a52.733,52.733,0,0,0,4.3,15.107,5.174,5.174,0,0,1-9.4,4.328,63.177,63.177,0,0,1-3.556-9.923,1.21,1.21,0,1,0-2.338.623,65.61,65.61,0,0,0,3.693,10.3,7.452,7.452,0,0,0,6.871,4.359l-.2,2.606a1.848,1.848,0,0,0,2.651,1.8l4.82-2.34a1.846,1.846,0,0,0,.221-3.2l-1.982-1.324A7.394,7.394,0,0,0,81.9,56.94a50.329,50.329,0,0,1,0-41.656,7.394,7.394,0,0,0-1.419-8.238l1.983-1.323a1.853,1.853,0,0,0,.815-1.661ZM77.259,69.429l.169-2.239a7.436,7.436,0,0,0,1.021-.459l1.838,1.228ZM78.45,5.492a7.467,7.467,0,0,0-1.023-.458L77.259,2.8l3.029,1.471ZM107.93,38.2a1.21,1.21,0,1,0-2.418.1,63.345,63.345,0,0,1-5.625,28.805,5.175,5.175,0,0,1-9.4-4.328,52.738,52.738,0,0,0,4.3-15.107l3.534-1.715a1.21,1.21,0,0,0-1.056-2.177l-2.192,1.064q.115-1.553.139-3.11l3.11-1.509a1.21,1.21,0,0,0-1.056-2.177l-2.082,1.01q-.053-1.477-.188-2.952l3.327-1.614a1.21,1.21,0,0,0-1.056-2.177L94.7,33.563a52.742,52.742,0,0,0-4.208-14.44,5.174,5.174,0,0,1,9.4-4.328,62.958,62.958,0,0,1,5.16,18.066,1.21,1.21,0,1,0,2.4-.31,65.369,65.369,0,0,0-5.358-18.76,7.464,7.464,0,0,0-6.871-4.362l.2-2.6a1.848,1.848,0,0,0-2.651-1.8L87.941,7.366a1.847,1.847,0,0,0-.218,3.2L89.7,11.885a7.394,7.394,0,0,0-1.419,8.238A50.316,50.316,0,0,1,92.5,35.507a49.855,49.855,0,0,1-4.215,26.272A7.394,7.394,0,0,0,89.7,70.018l-1.98,1.322a1.846,1.846,0,0,0,.218,3.2l4.823,2.341a1.848,1.848,0,0,0,2.649-1.8l-.2-2.606a7.393,7.393,0,0,0,2.323-.342,7.47,7.47,0,0,0,4.548-4.017A65.775,65.775,0,0,0,107.93,38.2Zm-15-30.567-.169,2.239a7.449,7.449,0,0,0-1.023.458L89.9,9.105ZM89.9,72.8l1.838-1.228a7.482,7.482,0,0,0,1.021.459l.169,2.239Z" transform="translate(0 0)"/></g></g></svg>