<svg xmlns="http://www.w3.org/2000/svg" width="102" height="89.332" viewBox="0 0 102 89.332"><g transform="translate(-1084 -1047.668)"><rect width="72" height="72" rx="36" transform="translate(1084 1065)" fill="#fff500"/><g transform="translate(1067.669 1047.668)"><path d="M76.079,348.475H65.952a1.441,1.441,0,0,1-1.439-1.439v-11.8a1.088,1.088,0,1,0-2.176,0v11.8a3.619,3.619,0,0,0,3.615,3.615H76.079a1.088,1.088,0,1,0,0-2.175Z" transform="translate(-0.001 -285.689)"/><path d="M63.424,46a1.088,1.088,0,0,0,1.088-1.088V3.615a1.441,1.441,0,0,1,1.439-1.439h37.266a1.088,1.088,0,0,0,0-2.176H65.951a3.619,3.619,0,0,0-3.615,3.615v41.3A1.088,1.088,0,0,0,63.424,46Z" transform="translate(0 0)"/><path d="M356.529,0h-6.865a1.088,1.088,0,1,0,0,2.176h6.865a1.441,1.441,0,0,1,1.439,1.439V61.347a1.441,1.441,0,0,1-1.439,1.439H346.256a1.088,1.088,0,1,0,0,2.176h10.273a3.619,3.619,0,0,0,3.615-3.615V3.615A3.619,3.619,0,0,0,356.529,0Z" transform="translate(-241.812)"/><path d="M181.376,272.474a14.94,14.94,0,0,0-2.581-8.419,1.088,1.088,0,0,0-1.8,1.221,12.841,12.841,0,1,1-2.961-3.1,1.088,1.088,0,0,0,1.3-1.743,15.014,15.014,0,1,0-17.485,24.4v7.352a2,2,0,0,0,2.408,1.955l5.94-1.249,6.127,1.256a2.011,2.011,0,0,0,.4.041,2,2,0,0,0,1.995-2v-7.258A15.013,15.013,0,0,0,181.376,272.474Zm-21.35,19.5v-5.885a14.9,14.9,0,0,0,2.147.809v4.625Zm5.946-1.25-1.624.341v-3.708a15.019,15.019,0,0,0,3.695.04v3.66l-1.629-.334A1.087,1.087,0,0,0,165.972,290.722Zm6.577,1.257-2.33-.478v-4.514a14.908,14.908,0,0,0,2.33-.832Z" transform="translate(-76.099 -220.118)"/><path d="M192.009,287.458a10.665,10.665,0,1,0,10.665,10.665A10.677,10.677,0,0,0,192.009,287.458Zm0,19.155a8.49,8.49,0,1,1,8.49-8.49A8.5,8.5,0,0,1,192.009,306.613Z" transform="translate(-101.748 -245.767)"/><path d="M223.848,321.152l-1.817-.264-.812-1.646a1.924,1.924,0,0,0-3.45,0l-.812,1.646-1.817.264a1.923,1.923,0,0,0-1.066,3.281l1.315,1.281-.31,1.809a1.923,1.923,0,0,0,2.791,2.028l1.625-.854,1.625.854a1.923,1.923,0,0,0,2.791-2.028l-.31-1.809,1.315-1.281a1.924,1.924,0,0,0-1.066-3.281Zm-1.862,3.1a1.923,1.923,0,0,0-.553,1.7l.246,1.437-1.29-.678a1.923,1.923,0,0,0-1.79,0l-1.29.678.246-1.437a1.923,1.923,0,0,0-.553-1.7l-1.044-1.017,1.443-.21a1.923,1.923,0,0,0,1.448-1.052l.645-1.307.645,1.307a1.923,1.923,0,0,0,1.448,1.052l1.443.21Z" transform="translate(-129.233 -272.025)"/><path d="M132.724,86.259h3.99a1.7,1.7,0,0,0,1.21-.5l1.2-1.2a1.7,1.7,0,0,0,.5-1.21V33.079a1.7,1.7,0,0,0-.5-1.211L137.759,30.5a1.7,1.7,0,0,0-1.211-.5H95.27a1.7,1.7,0,0,0-1.211.5l-1.223,1.223a1.7,1.7,0,0,0-.5,1.211V83.49a1.7,1.7,0,0,0,.5,1.21l1.057,1.057a1.7,1.7,0,0,0,1.21.5h3.99a1.088,1.088,0,0,0,0-2.175H95.3l-.785-.785V33.126l.952-.952h40.894l1.1,1.1V83.153l-.93.93h-3.8a1.088,1.088,0,0,0,0,2.175Z" transform="translate(-25.648 -25.648)"/><path d="M143.37,81.808h28.268a2.3,2.3,0,0,0,2.3-2.3V74.578a2.3,2.3,0,0,0-2.3-2.3H143.37a2.3,2.3,0,0,0-2.3,2.3v4.931A2.3,2.3,0,0,0,143.37,81.808Zm-.124-7.23a.124.124,0,0,1,.124-.124h28.268a.124.124,0,0,1,.124.124v4.931a.124.124,0,0,1-.124.124H143.37a.124.124,0,0,1-.124-.124Z" transform="translate(-67.316 -61.796)"/><path d="M142.159,158.461H172.85a1.088,1.088,0,0,0,0-2.176H142.159a1.088,1.088,0,1,0,0,2.176Z" transform="translate(-67.316 -133.618)"/><path d="M142.159,195.924H172.85a1.088,1.088,0,0,0,0-2.175H142.159a1.088,1.088,0,1,0,0,2.175Z" transform="translate(-67.316 -165.648)"/><path d="M142.159,233.386H172.85a1.088,1.088,0,1,0,0-2.175H142.159a1.088,1.088,0,1,0,0,2.175Z" transform="translate(-67.316 -197.677)"/></g></g></svg>