<svg xmlns="http://www.w3.org/2000/svg" width="56.818" height="78.898" viewBox="0 0 56.818 78.898"><g transform="translate(-862.541 218.775)"><path d="M-28.459,0V-.738L-27.5-.9V-5.432l-.955-.164V-6.34h5.174v1.635h-.75l-.082-.721H-26.35V-.9l.955.164V0ZM-20.1.123A2.124,2.124,0,0,1-21.6-.36a1.776,1.776,0,0,1-.516-1.362,1.722,1.722,0,0,1,.331-1.052,2.131,2.131,0,0,1,.958-.7,4.061,4.061,0,0,1,1.5-.249H-18.2v-.621a1.141,1.141,0,0,0-.349-.891,1.409,1.409,0,0,0-.981-.316,2.213,2.213,0,0,0-.691.1,2.005,2.005,0,0,0-.533.267l-.123.885h-.891V-5.754a3,3,0,0,1,1-.524,4.186,4.186,0,0,1,1.26-.179,2.732,2.732,0,0,1,1.811.551,1.943,1.943,0,0,1,.656,1.576v3.053q0,.123,0,.24t.015.234l.615.064V0H-18.07q-.053-.258-.082-.463t-.041-.41a2.793,2.793,0,0,1-.835.712A2.133,2.133,0,0,1-20.1.123Zm.17-.967a2.052,2.052,0,0,0,1.049-.275,1.708,1.708,0,0,0,.68-.662V-2.93h-1.172a1.67,1.67,0,0,0-1.2.381,1.154,1.154,0,0,0-.4.85.789.789,0,0,0,.258.636A1.178,1.178,0,0,0-19.928-.844Zm4.236,3.281V1.693l.9-.164V-5.432L-15.75-5.6V-6.34H-13.8l.105.773a2.134,2.134,0,0,1,.771-.662,2.31,2.31,0,0,1,1.052-.229,2.147,2.147,0,0,1,1.342.425,2.64,2.64,0,0,1,.85,1.189,4.991,4.991,0,0,1,.293,1.79v.123a4.01,4.01,0,0,1-.3,1.6,2.449,2.449,0,0,1-.847,1.069,2.258,2.258,0,0,1-1.324.384,2.515,2.515,0,0,1-1.028-.2,1.989,1.989,0,0,1-.753-.583V1.529l1.008.164v.744Zm3.475-3.217a1.423,1.423,0,0,0,1.242-.6,2.634,2.634,0,0,0,.422-1.553v-.123a3.99,3.99,0,0,0-.187-1.28,1.918,1.918,0,0,0-.56-.87,1.384,1.384,0,0,0-.929-.316,1.544,1.544,0,0,0-.844.223,1.676,1.676,0,0,0-.568.609V-1.6a1.6,1.6,0,0,0,.565.606A1.613,1.613,0,0,0-12.217-.779Zm6.018.9A2.124,2.124,0,0,1-7.705-.36a1.776,1.776,0,0,1-.516-1.362A1.722,1.722,0,0,1-7.89-2.774a2.131,2.131,0,0,1,.958-.7,4.061,4.061,0,0,1,1.5-.249H-4.3v-.621a1.141,1.141,0,0,0-.349-.891,1.409,1.409,0,0,0-.981-.316,2.213,2.213,0,0,0-.691.1,2.005,2.005,0,0,0-.533.267l-.123.885h-.891V-5.754a3,3,0,0,1,1-.524,4.186,4.186,0,0,1,1.26-.179A2.732,2.732,0,0,1-3.8-5.906,1.943,1.943,0,0,1-3.146-4.33v3.053q0,.123,0,.24t.015.234l.615.064V0H-4.172q-.053-.258-.082-.463t-.041-.41a2.793,2.793,0,0,1-.835.712A2.133,2.133,0,0,1-6.2.123Zm.17-.967A2.052,2.052,0,0,0-4.98-1.119a1.708,1.708,0,0,0,.68-.662V-2.93H-5.473a1.67,1.67,0,0,0-1.2.381,1.154,1.154,0,0,0-.4.85.789.789,0,0,0,.258.636A1.178,1.178,0,0,0-6.029-.844ZM-1.482,0V-.738L-.527-.9V-5.432L-1.482-5.6V-6.34H1.582V-5.6l-.955.164V-3.6H3.445V-5.432L2.49-5.6V-6.34h3.07V-5.6l-.955.164V-.9l.955.164V0H2.49V-.738L3.445-.9V-2.7H.627V-.9l.955.164V0ZM8.033,0V-.738L8.988-.9V-5.443H7.652l-.088.99H6.58V-6.34h6v1.887h-.99l-.088-.99H10.143V-.9l.955.164V0Zm5.607,0V-.738L14.6-.9V-5.432L13.641-5.6V-6.34H16.7V-5.6l-.955.164v3.58l.035.012,2.795-4.5h2.109V-5.6l-.955.164V-.9l.955.164V0H17.619V-.738L18.574-.9V-4.488L18.539-4.5,15.744,0Zm7.992,0V-.738l.832-.123,1.084-1.77a1.855,1.855,0,0,1-.929-.686A1.855,1.855,0,0,1,22.295-4.4a1.775,1.775,0,0,1,.293-1.008,1.932,1.932,0,0,1,.838-.686,3.142,3.142,0,0,1,1.3-.246h3.633V-5.6l-.955.164V-.9l.955.164V0H25.295V-.738L26.25-.9V-2.461H24.686L23.186,0Zm2.977-3.369H26.25V-5.443H24.727a1.309,1.309,0,0,0-.949.313,1,1,0,0,0-.322.741,1,1,0,0,0,.29.721A1.152,1.152,0,0,0,24.609-3.369ZM-27.281,14v-.738l.955-.164V8.568l-.955-.164V7.66h3.064V8.4l-.955.164v1.77h.609l1.324-1.775a3.471,3.471,0,0,1,.7-.756,1.25,1.25,0,0,1,.771-.258,1.257,1.257,0,0,1,.445.067,2.325,2.325,0,0,1,.4.208l-.164.785-.29-.047a1.279,1.279,0,0,0-.155-.006.7.7,0,0,0-.425.158,1.8,1.8,0,0,0-.366.375l-1.225,1.588,2,2.438.814.146V14h-1.541l-2.145-2.689h-.75V13.1l.955.164V14Zm9.322.123a2.124,2.124,0,0,1-1.506-.483,1.776,1.776,0,0,1-.516-1.362,1.722,1.722,0,0,1,.331-1.052,2.131,2.131,0,0,1,.958-.7,4.061,4.061,0,0,1,1.5-.249h1.131V9.658a1.141,1.141,0,0,0-.349-.891,1.409,1.409,0,0,0-.981-.316,2.213,2.213,0,0,0-.691.1,2.005,2.005,0,0,0-.533.267l-.123.885h-.891V8.246a3,3,0,0,1,1-.524,4.186,4.186,0,0,1,1.26-.179,2.732,2.732,0,0,1,1.811.551,1.943,1.943,0,0,1,.656,1.576v3.053q0,.123,0,.24t.015.234l.615.064V14h-1.658q-.053-.258-.082-.463t-.041-.41a2.793,2.793,0,0,1-.835.712A2.133,2.133,0,0,1-17.959,14.123Zm.17-.967a2.052,2.052,0,0,0,1.049-.275,1.708,1.708,0,0,0,.68-.662V11.07h-1.172a1.67,1.67,0,0,0-1.2.381,1.154,1.154,0,0,0-.4.85.789.789,0,0,0,.258.636A1.178,1.178,0,0,0-17.789,13.156ZM-9.545,14v-.738l.955-.164V11.738a5.134,5.134,0,0,1-.691.129,6.428,6.428,0,0,1-.744.041,2.954,2.954,0,0,1-1.315-.27,1.892,1.892,0,0,1-.841-.8,2.7,2.7,0,0,1-.293-1.321V8.557l-.955-.164V7.654h3.064v.738l-.955.164v.961a2.081,2.081,0,0,0,.144.835.983.983,0,0,0,.434.483,1.483,1.483,0,0,0,.718.158,5.954,5.954,0,0,0,.738-.044,5.693,5.693,0,0,0,.7-.132V8.568L-9.545,8.4V7.66H-6.48V8.4l-.955.164V13.1l.955.164V14Zm7,.123a2.853,2.853,0,0,1-1.529-.4,2.678,2.678,0,0,1-1-1.116,3.673,3.673,0,0,1-.354-1.652V10.7a3.433,3.433,0,0,1,.372-1.614,2.985,2.985,0,0,1,.99-1.125,2.381,2.381,0,0,1,1.351-.413,2.709,2.709,0,0,1,1.433.352,2.209,2.209,0,0,1,.87.987,3.548,3.548,0,0,1,.293,1.5V11.1H-4.242l-.018.029a2.865,2.865,0,0,0,.214,1.081,1.707,1.707,0,0,0,.583.741,1.541,1.541,0,0,0,.914.27,2.9,2.9,0,0,0,1.028-.167,2.364,2.364,0,0,0,.765-.46l.451.75a2.769,2.769,0,0,1-.9.554A3.594,3.594,0,0,1-2.549,14.123ZM-4.207,10.2h2.924v-.152a1.982,1.982,0,0,0-.161-.817,1.291,1.291,0,0,0-.48-.568,1.437,1.437,0,0,0-.8-.208,1.183,1.183,0,0,0-.7.226,1.731,1.731,0,0,0-.521.612,2.573,2.573,0,0,0-.27.879Zm8.074,3.926a2.76,2.76,0,0,1-1.5-.4,2.685,2.685,0,0,1-.99-1.116,3.7,3.7,0,0,1-.352-1.652v-.246a3.721,3.721,0,0,1,.34-1.617,2.64,2.64,0,0,1,2.5-1.547,3.337,3.337,0,0,1,1.345.252,2.761,2.761,0,0,1,.97.691l.029,1.523h-.9L5.109,8.9a1.456,1.456,0,0,0-.5-.328,1.839,1.839,0,0,0-.7-.123,1.428,1.428,0,0,0-.905.3A2.005,2.005,0,0,0,2.4,9.57a2.877,2.877,0,0,0-.217,1.137v.246a3.25,3.25,0,0,0,.2,1.2,1.749,1.749,0,0,0,.58.788,1.475,1.475,0,0,0,.9.278,1.468,1.468,0,0,0,.973-.322,1.383,1.383,0,0,0,.475-.885H6.346l.012.035A2.128,2.128,0,0,1,5.2,13.833,2.8,2.8,0,0,1,3.867,14.123ZM8.73,14v-.738l.955-.164V8.557H8.35l-.088.99H7.277V7.66h6V9.547h-.99l-.088-.99H10.84V13.1l.955.164V14Zm5.607,0v-.738l.955-.164V8.568L14.338,8.4V7.66h3.451a3.643,3.643,0,0,1,1.945.437,1.446,1.446,0,0,1,.691,1.31,1.263,1.263,0,0,1-.27.794,1.659,1.659,0,0,1-.762.53,1.691,1.691,0,0,1,.926.548,1.393,1.393,0,0,1,.334.917,1.544,1.544,0,0,1-.647,1.348A3.108,3.108,0,0,1,18.193,14Zm2.109-.891h1.746a1.623,1.623,0,0,0,.973-.243.908.908,0,0,0,0-1.4,1.609,1.609,0,0,0-.973-.246H16.447Zm0-2.771h1.348a2.239,2.239,0,0,0,1.1-.217.711.711,0,0,0,.372-.656q0-.908-1.482-.908H16.447ZM23.7,14.123A2.124,2.124,0,0,1,22.2,13.64a1.776,1.776,0,0,1-.516-1.362,1.722,1.722,0,0,1,.331-1.052,2.131,2.131,0,0,1,.958-.7,4.061,4.061,0,0,1,1.5-.249H25.6V9.658a1.141,1.141,0,0,0-.349-.891,1.409,1.409,0,0,0-.981-.316,2.213,2.213,0,0,0-.691.1,2.005,2.005,0,0,0-.533.267l-.123.885h-.891V8.246a3,3,0,0,1,1-.524,4.186,4.186,0,0,1,1.26-.179,2.732,2.732,0,0,1,1.811.551,1.943,1.943,0,0,1,.656,1.576v3.053q0,.123,0,.24t.015.234l.615.064V14H25.729q-.053-.258-.082-.463t-.041-.41a2.793,2.793,0,0,1-.835.712A2.133,2.133,0,0,1,23.7,14.123Zm.17-.967a2.052,2.052,0,0,0,1.049-.275,1.708,1.708,0,0,0,.68-.662V11.07H24.428a1.67,1.67,0,0,0-1.2.381,1.154,1.154,0,0,0-.4.85.789.789,0,0,0,.258.636A1.178,1.178,0,0,0,23.871,13.156Z" transform="translate(891 -154)" fill="#fff"/><g transform="translate(864 -218.775)"><g transform="translate(0 0)"><path d="M24.931,109.842A17.642,17.642,0,0,1,11.5,84.173a6.767,6.767,0,0,0-3.155-11.2,1.06,1.06,0,0,0-1.026.275A6.765,6.765,0,0,0,9.161,84.128a19.669,19.669,0,0,0-1,2.7,6.7,6.7,0,0,0-.646-.751A6.794,6.794,0,0,0,.979,84.325a1.06,1.06,0,0,0-.751.751,6.765,6.765,0,0,0,6.548,8.517q.319,0,.639-.03a19.684,19.684,0,0,0,.482,3.29,6.713,6.713,0,0,0-.936-.327A6.793,6.793,0,0,0,.424,98.276,1.06,1.06,0,0,0,.149,99.3a6.793,6.793,0,0,0,4.786,4.786,6.72,6.72,0,0,0,1.74.229,6.812,6.812,0,0,0,3.888-1.223,19.891,19.891,0,0,0,2.18,2.779,6.8,6.8,0,0,0-5.5,3.373,1.06,1.06,0,0,0,0,1.062,6.768,6.768,0,0,0,11.709.024,19.613,19.613,0,0,0,5.716,1.615,1.073,1.073,0,0,0,.132.008,1.06,1.06,0,0,0,.13-2.112Zm-19.447-7.8a4.668,4.668,0,0,1-3.079-2.683,4.646,4.646,0,0,1,7.087,1.9,4.668,4.668,0,0,1-4.008.784Zm2.131-22.8A4.668,4.668,0,0,1,8.4,75.231a4.646,4.646,0,0,1,1.9,7.086A4.668,4.668,0,0,1,7.615,79.239ZM3.479,90.114a4.668,4.668,0,0,1-1.325-3.863,4.646,4.646,0,0,1,5.188,5.188,4.669,4.669,0,0,1-3.863-1.325Zm9.627,21.457a4.668,4.668,0,0,1-3.668-1.8,4.646,4.646,0,0,1,7.336,0A4.668,4.668,0,0,1,13.106,111.571Z" transform="translate(0 -65.208)" fill="#fff"/><path d="M286.882,96.522a6.71,6.71,0,0,0-.936.327,19.687,19.687,0,0,0,.482-3.29q.32.03.639.03a6.765,6.765,0,0,0,6.548-8.517,1.06,1.06,0,0,0-.751-.751,6.8,6.8,0,0,0-6.537,1.752,6.719,6.719,0,0,0-.646.751,19.675,19.675,0,0,0-1-2.7,6.765,6.765,0,0,0,1.842-10.877,1.059,1.059,0,0,0-1.026-.275,6.767,6.767,0,0,0-3.155,11.2,17.642,17.642,0,0,1-13.432,25.669,1.06,1.06,0,0,0,.13,2.112,1.073,1.073,0,0,0,.132-.008,19.616,19.616,0,0,0,5.716-1.615A6.768,6.768,0,0,0,286.6,110.3a1.06,1.06,0,0,0,0-1.062,6.8,6.8,0,0,0-5.5-3.373,19.878,19.878,0,0,0,2.18-2.779,6.811,6.811,0,0,0,3.888,1.223,6.724,6.724,0,0,0,1.74-.229,6.793,6.793,0,0,0,4.786-4.786,1.06,1.06,0,0,0-.275-1.026,6.793,6.793,0,0,0-6.537-1.751Zm.944-8.949a4.667,4.667,0,0,1,3.863-1.325,4.646,4.646,0,0,1-5.188,5.188A4.668,4.668,0,0,1,287.827,87.573Zm-5.065-9.265a4.668,4.668,0,0,1,2.683-3.079,4.646,4.646,0,0,1-1.9,7.087A4.668,4.668,0,0,1,282.761,78.307Zm1.645,31.466a4.646,4.646,0,0,1-7.336,0,4.646,4.646,0,0,1,7.336,0Zm3.954-7.736a4.668,4.668,0,0,1-4.008-.784,4.646,4.646,0,0,1,7.087-1.9A4.668,4.668,0,0,1,288.36,102.037Z" transform="translate(-239.58 -65.206)" fill="#fff"/><path d="M168.811,175.078a2.084,2.084,0,0,0,.767-2.37l-1.665-5.086,4.346-3.143a2.116,2.116,0,0,0-1.24-3.831h-5.366l-1.643-5.083a2.116,2.116,0,0,0-4.027,0l-1.643,5.083h-5.366a2.116,2.116,0,0,0-1.24,3.831l4.346,3.143-1.665,5.086a2.084,2.084,0,0,0,.767,2.37,2.084,2.084,0,0,0,2.491,0L162,171.92l4.323,3.155A2.084,2.084,0,0,0,168.811,175.078ZM162,169.548a1.059,1.059,0,0,0-.625.2l-4.938,3.6,1.9-5.81a1.06,1.06,0,0,0-.386-1.189l-4.964-3.59h6.126a1.06,1.06,0,0,0,1.009-.734L162,156.228l1.877,5.806a1.06,1.06,0,0,0,1.009.734h6.126l-4.964,3.59a1.06,1.06,0,0,0-.386,1.189l1.9,5.81-4.938-3.6A1.057,1.057,0,0,0,162,169.548Z" transform="translate(-134.865 -137.767)" fill="#fff500"/><path d="M247.045,2.12a1.061,1.061,0,0,0,1.06-1.06,1.06,1.06,0,1,0-1.809.749A1.068,1.068,0,0,0,247.045,2.12Z" transform="translate(-219.913 0)"/><path d="M153.455,48.866a1.06,1.06,0,0,0,1.921-.9l-2.767-5.933a1.06,1.06,0,0,0-1.921.9Z" transform="translate(-134.628 -37.034)" fill="#fff500"/><path d="M247.043,52.422h0a1.06,1.06,0,0,0,1.06-1.059l.007-5.24a1.06,1.06,0,0,0-1.059-1.061h0a1.06,1.06,0,0,0-1.06,1.059l-.007,5.24A1.06,1.06,0,0,0,247.043,52.422Z" transform="translate(-219.913 -40.286)" fill="#fff500"/><path d="M315.887,49.379a1.06,1.06,0,0,0,1.409-.513l2.767-5.933a1.06,1.06,0,1,0-1.921-.9l-2.767,5.933A1.06,1.06,0,0,0,315.887,49.379Z" transform="translate(-281.858 -37.035)" fill="#fff500"/></g></g></g></svg>